<?xml version="1.0" encoding="utf-8"?>
<!-- Generator: Adobe Illustrator 23.0.5, SVG Export Plug-In . SVG Version: 6.00 Build 0)  -->
<svg version="1.0" id="Calque_1" xmlns="http://www.w3.org/2000/svg" xmlns:xlink="http://www.w3.org/1999/xlink" x="0px" y="0px"
	 viewBox="0 0 250 100" style="enable-background:new 0 0 250 100;" xml:space="preserve">
<style type="text/css">
	.st0{fill:url(#SVGID_1_);}
	.st1{fill:url(#SVGID_2_);}
	.st2{fill:url(#SVGID_3_);}
	.st3{fill:url(#SVGID_4_);}
	.st4{fill:url(#SVGID_5_);}
	.st5{fill:url(#SVGID_6_);}
	.st6{fill:url(#SVGID_7_);}
	.st7{fill:url(#SVGID_8_);}
	.st8{fill:url(#SVGID_9_);}
	.st9{fill:url(#SVGID_10_);}
	.st10{fill:url(#SVGID_11_);}
	.st11{fill:url(#SVGID_12_);}
	.st12{fill:url(#SVGID_13_);}
	.st13{fill:url(#SVGID_14_);}
	.st14{fill:url(#SVGID_15_);}
	.st15{fill:url(#SVGID_16_);}
	.st16{fill:url(#SVGID_17_);}
	.st17{fill:url(#SVGID_18_);}
	.st18{fill:url(#SVGID_19_);}
	.st19{fill:url(#SVGID_20_);}
	.st20{fill:url(#SVGID_21_);}
	.st21{fill:url(#SVGID_22_);}
	.st22{fill:url(#SVGID_23_);}
	.st23{fill:url(#SVGID_24_);}
	.st24{fill:url(#SVGID_25_);}
</style>
<title>icone</title>
<linearGradient id="SVGID_1_" gradientUnits="userSpaceOnUse" x1="23.0846" y1="47.6185" x2="42.5566" y2="47.6185">
	<stop  offset="6.325391e-08" style="stop-color:#510023"/>
	<stop  offset="1" style="stop-color:#722D49"/>
</linearGradient>
<path class="st0" d="M23.08,52.7c1.03-1.68,2.24-3.24,3.61-4.65c1.38-1.41,2.95-2.63,4.66-3.6c1.7-0.96,3.54-1.67,5.44-2.12
	c0.48-0.1,0.92-0.22,1.43-0.28c0.51-0.06,0.92-0.16,1.44-0.2s0.92-0.08,1.44-0.1h1.45c-1.9,0.2-3.77,0.6-5.59,1.19
	c-3.6,1.13-6.82,3.22-9.33,6.04c-1.24,1.4-2.34,2.91-3.28,4.53L23.08,52.7z"/>
<linearGradient id="SVGID_2_" gradientUnits="userSpaceOnUse" x1="5.317" y1="47.4078" x2="24.8165" y2="47.4078">
	<stop  offset="6.325391e-08" style="stop-color:#510023"/>
	<stop  offset="1" style="stop-color:#722D49"/>
</linearGradient>
<path class="st1" d="M23.5,53.28c-0.93-1.62-2.02-3.13-3.26-4.53c-2.51-2.81-5.73-4.9-9.33-6.05c-1.82-0.58-3.69-0.97-5.59-1.16
	h1.45c0.48,0,0.92,0.06,1.44,0.1c0.52,0.04,0.92,0.13,1.44,0.2s0.92,0.18,1.43,0.27c1.91,0.45,3.74,1.16,5.44,2.13
	c1.71,0.98,3.27,2.19,4.64,3.61c1.4,1.41,2.63,2.97,3.67,4.66L23.5,53.28z"/>
<linearGradient id="SVGID_3_" gradientUnits="userSpaceOnUse" x1="38.7722" y1="48.8464" x2="42.1535" y2="48.8464">
	<stop  offset="6.325391e-08" style="stop-color:#510023"/>
	<stop  offset="1" style="stop-color:#722D49"/>
</linearGradient>
<path class="st2" d="M42.15,41.89c0,0.6-0.05,1.19-0.08,1.83c-0.04,0.64-0.12,1.18-0.19,1.77c-0.16,1.18-0.38,2.35-0.63,3.52
	c-0.25,1.16-0.56,2.31-0.92,3.45c-0.18,0.57-0.37,1.13-0.56,1.69c-0.19,0.56-0.41,1.12-0.65,1.67l-0.35-0.12
	c1.46-4.47,2.47-9.07,3.01-13.74L42.15,41.89z"/>
<linearGradient id="SVGID_4_" gradientUnits="userSpaceOnUse" x1="41.7136" y1="48.6082" x2="44.9574" y2="48.6082">
	<stop  offset="6.325391e-08" style="stop-color:#510023"/>
	<stop  offset="1" style="stop-color:#722D49"/>
</linearGradient>
<path class="st3" d="M42.14,41.84c0.09,1.14,0.22,2.27,0.39,3.41c0.17,1.14,0.38,2.26,0.61,3.38c0.24,1.12,0.52,2.24,0.82,3.34
	s0.63,2.21,1,3.3l-0.36,0.11c-0.22-0.53-0.41-1.08-0.6-1.62c-0.19-0.54-0.36-1.1-0.52-1.65c-0.35-1.11-0.6-2.23-0.92-3.35
	c-0.31-1.13-0.44-2.27-0.59-3.42c-0.06-0.58-0.13-1.15-0.18-1.72c-0.05-0.57-0.06-1.15-0.07-1.73L42.14,41.84z"/>
<linearGradient id="SVGID_5_" gradientUnits="userSpaceOnUse" x1="38.3965" y1="56.9336" x2="45.3789" y2="56.9336">
	<stop  offset="6.325391e-08" style="stop-color:#510023"/>
	<stop  offset="1" style="stop-color:#722D49"/>
</linearGradient>
<path class="st4" d="M38.4,56.13c0.28,0.08,0.58,0.14,0.92,0.19c0.34,0.05,0.57,0.12,0.86,0.16c0.58,0.09,1.16,0.14,1.74,0.13
	c0.58,0,1.16-0.04,1.74-0.12l0.86-0.16c0.28-0.05,0.58-0.12,0.86-0.2c-0.41,0.53-0.95,0.95-1.57,1.21c-0.6,0.25-1.24,0.39-1.9,0.4
	c-0.65,0.02-1.3-0.11-1.91-0.37C39.36,57.13,38.8,56.69,38.4,56.13z"/>
<linearGradient id="SVGID_6_" gradientUnits="userSpaceOnUse" x1="2.2839" y1="48.8235" x2="5.6652" y2="48.8235">
	<stop  offset="6.325391e-08" style="stop-color:#510023"/>
	<stop  offset="1" style="stop-color:#722D49"/>
</linearGradient>
<path class="st5" d="M5.67,41.89c0,0.6,0,1.19-0.08,1.83c-0.08,0.64-0.12,1.18-0.19,1.77c-0.16,1.18-0.38,2.35-0.63,3.52
	c-0.25,1.16-0.56,2.31-0.92,3.45c-0.18,0.57-0.37,1.13-0.56,1.69c-0.19,0.56-0.41,1.07-0.65,1.62l-0.35-0.12
	c1.47-4.47,2.48-9.07,3.01-13.74L5.67,41.89z"/>
<linearGradient id="SVGID_7_" gradientUnits="userSpaceOnUse" x1="5.317" y1="48.6082" x2="8.4691" y2="48.6082">
	<stop  offset="6.325391e-08" style="stop-color:#510023"/>
	<stop  offset="1" style="stop-color:#722D49"/>
</linearGradient>
<path class="st6" d="M5.65,41.84c0.08,1.14,0.22,2.27,0.39,3.41c0.17,1.14,0.37,2.26,0.61,3.38c0.25,1.12,0.52,2.24,0.82,3.34
	s0.63,2.21,1,3.3l-0.36,0.11c-0.22-0.53-0.41-1.08-0.6-1.62c-0.19-0.54-0.36-1.1-0.53-1.65c-0.34-1.11-0.6-2.23-0.86-3.35
	c-0.27-1.13-0.44-2.27-0.54-3.42c-0.07-0.58-0.13-1.15-0.18-1.72c-0.05-0.57-0.06-1.15-0.07-1.73L5.65,41.84z"/>
<linearGradient id="SVGID_8_" gradientUnits="userSpaceOnUse" x1="1.9082" y1="56.9337" x2="8.9273" y2="56.9337">
	<stop  offset="6.325391e-08" style="stop-color:#510023"/>
	<stop  offset="1" style="stop-color:#722D49"/>
</linearGradient>
<path class="st7" d="M1.91,56.13c0.28,0.08,0.58,0.14,0.86,0.19s0.58,0.12,0.92,0.16c0.57,0.09,1.15,0.14,1.73,0.13
	c0.58,0,1.16-0.04,1.74-0.12l0.92-0.16c0.28-0.05,0.57-0.12,0.85-0.2c-0.41,0.53-0.95,0.95-1.57,1.21c-0.6,0.25-1.24,0.39-1.9,0.4
	c-0.65,0.02-1.3-0.11-1.9-0.37C2.9,57.14,2.32,56.7,1.91,56.13z"/>
<linearGradient id="SVGID_9_" gradientUnits="userSpaceOnUse" x1="19.8408" y1="50.2163" x2="95.3739" y2="50.2163">
	<stop  offset="6.325391e-08" style="stop-color:#510023"/>
	<stop  offset="1" style="stop-color:#722D49"/>
</linearGradient>
<path class="st8" d="M95.37,97.69l-0.18,0.13c-7.73-7.33-15.33-14.51-21.02-22.64c-7.76-10.97-13.7-23.13-17.58-36
	c-3.12-10.19-4.63-20.8-4.46-31.46c-4.55,4.15-8.67,8.76-12.3,13.74c-11.01,15.1-17.2,33.18-17.76,51.86l-2.23-0.06
	c0.58-19.15,6.94-37.68,18.24-53.15c4.12-5.71,8.9-10.92,14.22-15.53C53.4,3.67,54.24,3,54.74,2.61c0,0.35-0.17,1.4-0.27,3.07
	c-0.45,11.16,1,22.32,4.3,32.99C65.46,61.27,78.1,81.66,95.37,97.69z"/>
<g>
	<g>
		<path d="M78.45,61.31c-0.07,0.37-0.43,1.62-0.55,1.99h-5.58v-0.34c1.09-0.11,1.19-0.17,1.19-1.19v-4.76
			c0-1.02-0.12-1.08-1.08-1.17v-0.34h3.21v0.34c-0.96,0.1-1.09,0.14-1.09,1.17v4.88c0,0.73,0.1,0.9,0.78,0.91
			c0.01,0,0.88,0.01,0.95,0.01c0.61,0,0.79-0.07,1.07-0.37c0.3-0.31,0.55-0.79,0.73-1.24L78.45,61.31z"/>
		<path d="M83.29,63.3v-0.34c0.78-0.1,0.88-0.22,0.71-0.67c-0.16-0.47-0.4-1.07-0.65-1.82h-2.59c-0.19,0.54-0.37,1.01-0.54,1.5
			c-0.26,0.78-0.1,0.88,0.89,1v0.34h-2.77v-0.34c0.76-0.1,0.95-0.18,1.37-1.26l2.48-6.3l0.38-0.07c0.76,2.05,1.58,4.32,2.34,6.39
			c0.38,1.04,0.49,1.14,1.34,1.24v0.34H83.29z M82.09,56.91c-0.38,1.03-0.79,2.12-1.15,3.07h2.24L82.09,56.91z"/>
		<path d="M97.32,55.84c-0.84,0.12-0.96,0.22-1.28,1.2c-0.4,1.2-1.36,4.25-2.02,6.39h-0.41c-0.62-1.87-1.43-4.19-2.05-5.96
			c-0.7,2.06-1.4,4.11-2.03,5.96h-0.4c-0.6-2.06-1.28-4.31-1.93-6.4c-0.31-0.97-0.44-1.1-1.22-1.19v-0.34h2.96v0.34
			c-0.89,0.1-0.91,0.23-0.74,0.83c0.47,1.62,0.95,3.21,1.44,4.91c0.66-1.91,1.38-3.99,1.99-5.96h0.38c0.67,2.04,1.34,3.93,2.04,5.97
			c0.5-1.6,1.19-3.73,1.45-4.77c0.18-0.7,0.08-0.85-0.94-0.97v-0.34h2.75V55.84z"/>
		<path d="M105.68,57.38c-0.11-0.34-0.2-0.62-0.37-0.89c-0.23-0.41-0.41-0.5-1.08-0.5h-1.28c-0.35,0-0.38,0.04-0.38,0.38v2.77h1.49
			c0.86,0,0.92-0.14,1.1-0.98h0.36v2.51h-0.37c-0.16-0.84-0.24-1.03-1.09-1.03h-1.49v2.15c0,1.04,0.12,1.09,1.21,1.19v0.34h-3.33
			v-0.34c0.97-0.07,1.08-0.16,1.08-1.19v-4.75c0-1.04-0.12-1.09-1.08-1.19v-0.34h3.8c1.08,0,1.49-0.01,1.69-0.02
			c0.01,0.43,0.06,1.27,0.12,1.85L105.68,57.38z"/>
		<path d="M107.03,63.3v-0.34c0.98-0.11,1.08-0.16,1.08-1.18v-4.76c0-1.03-0.1-1.08-1.08-1.19v-0.34h3.21v0.34
			c-1,0.11-1.09,0.16-1.09,1.19v4.76c0,1.03,0.1,1.07,1.09,1.18v0.34H107.03z"/>
		<path d="M118.42,63.4c-0.16,0-0.29-0.01-0.44-0.02c-0.88-0.06-1.34-0.29-1.87-1.03c-0.44-0.61-0.88-1.37-1.26-1.98
			c-0.24-0.38-0.4-0.46-1.01-0.46h-0.42v1.88c0,1.02,0.13,1.08,1.09,1.18v0.34h-3.2v-0.34c1-0.11,1.08-0.16,1.08-1.18v-4.79
			c0-1.02-0.13-1.06-1.08-1.16v-0.34h3.06c0.88,0,1.46,0.11,1.92,0.41c0.49,0.31,0.82,0.85,0.82,1.58c0,1.03-0.66,1.68-1.55,2.06
			c0.22,0.37,0.73,1.18,1.09,1.71c0.44,0.64,0.67,0.94,0.95,1.24c0.32,0.35,0.6,0.48,0.88,0.55L118.42,63.4z M114,59.5
			c0.62,0,1.02-0.1,1.32-0.35c0.47-0.35,0.66-0.83,0.66-1.47c0-1.28-0.85-1.75-1.78-1.75c-0.35,0-0.55,0.05-0.63,0.12
			c-0.11,0.08-0.14,0.2-0.14,0.52v2.94H114z"/>
		<path d="M125.35,63.3v-0.34c0.98-0.1,1.02-0.17,1.01-1.45l0.01-4.89c-0.98,2.2-2.57,5.63-2.99,6.68h-0.31
			c-0.41-1.09-1.76-4.39-2.67-6.56c-0.2,4.2-0.22,5.15-0.22,5.37c0.01,0.67,0.31,0.77,1.13,0.85v0.34h-2.84v-0.34
			c0.7-0.07,0.98-0.22,1.08-0.86c0.07-0.53,0.08-0.96,0.4-5.34c0.05-0.62-0.07-0.83-1.13-0.92v-0.34h2.09l2.65,6.08l2.84-6.08h2.1
			v0.34c-1.03,0.12-1.16,0.23-1.14,1.07l0.05,4.61c0.05,1.28,0.08,1.34,1.14,1.45v0.34H125.35z"/>
	</g>
</g>
<g>
	<linearGradient id="SVGID_10_" gradientUnits="userSpaceOnUse" x1="72.1597" y1="42.1514" x2="85.7847" y2="42.1514">
		<stop  offset="6.325391e-08" style="stop-color:#510023"/>
		<stop  offset="1" style="stop-color:#722D49"/>
	</linearGradient>
	<path class="st9" d="M78.44,47.45l-4.09-8.91v7.08c0,0.65,0.07,1.06,0.21,1.22c0.19,0.22,0.5,0.33,0.91,0.33h0.38v0.29h-3.69v-0.29
		h0.38c0.45,0,0.77-0.14,0.95-0.41c0.11-0.17,0.17-0.55,0.17-1.14v-6.92c0-0.47-0.05-0.81-0.16-1.02c-0.07-0.15-0.21-0.28-0.4-0.38
		s-0.51-0.15-0.94-0.15v-0.29h3L79,45.14l3.78-8.29h3v0.29h-0.37c-0.45,0-0.77,0.14-0.96,0.41c-0.11,0.17-0.17,0.55-0.17,1.14v6.92
		c0,0.65,0.07,1.06,0.22,1.22c0.19,0.22,0.5,0.33,0.91,0.33h0.37v0.29h-4.5v-0.29h0.38c0.45,0,0.77-0.14,0.95-0.41
		c0.11-0.17,0.17-0.55,0.17-1.14v-7.08l-4.09,8.91H78.44z"/>
	<linearGradient id="SVGID_11_" gradientUnits="userSpaceOnUse" x1="86.2456" y1="42.0303" x2="97.4956" y2="42.0303">
		<stop  offset="6.325391e-08" style="stop-color:#510023"/>
		<stop  offset="1" style="stop-color:#722D49"/>
	</linearGradient>
	<path class="st10" d="M93.44,43.9h-4.1l-0.72,1.67c-0.18,0.41-0.27,0.72-0.27,0.92c0,0.16,0.08,0.3,0.23,0.43
		c0.15,0.12,0.49,0.2,1,0.24v0.29h-3.34v-0.29c0.44-0.08,0.73-0.18,0.86-0.3c0.27-0.25,0.56-0.76,0.88-1.52l3.73-8.72h0.27
		l3.69,8.81c0.3,0.71,0.57,1.17,0.81,1.38s0.58,0.33,1.01,0.36v0.29h-4.18v-0.29c0.42-0.02,0.71-0.09,0.86-0.21
		c0.15-0.12,0.22-0.27,0.22-0.44c0-0.23-0.1-0.59-0.31-1.09L93.44,43.9z M93.22,43.32l-1.8-4.28l-1.84,4.28H93.22z"/>
	<linearGradient id="SVGID_12_" gradientUnits="userSpaceOnUse" x1="97.9487" y1="42.1514" x2="108.9019" y2="42.1514">
		<stop  offset="6.325391e-08" style="stop-color:#510023"/>
		<stop  offset="1" style="stop-color:#722D49"/>
	</linearGradient>
	<path class="st11" d="M100.96,41.77h4.92v-3.03c0-0.54-0.03-0.9-0.1-1.07c-0.05-0.13-0.16-0.24-0.33-0.34
		c-0.22-0.13-0.46-0.19-0.71-0.19h-0.38v-0.29h4.53v0.29h-0.38c-0.25,0-0.49,0.06-0.71,0.18c-0.17,0.08-0.28,0.21-0.34,0.38
		c-0.06,0.17-0.09,0.51-0.09,1.04v6.84c0,0.54,0.03,0.89,0.1,1.06c0.05,0.13,0.16,0.24,0.32,0.34c0.23,0.13,0.47,0.19,0.72,0.19
		h0.38v0.29h-4.53v-0.29h0.38c0.43,0,0.75-0.13,0.95-0.38c0.13-0.17,0.2-0.57,0.2-1.2v-3.23h-4.92v3.23c0,0.54,0.03,0.89,0.1,1.06
		c0.05,0.13,0.16,0.24,0.33,0.34c0.22,0.13,0.46,0.19,0.71,0.19h0.38v0.29h-4.54v-0.29h0.38c0.44,0,0.75-0.13,0.95-0.38
		c0.13-0.17,0.19-0.57,0.19-1.2v-6.84c0-0.54-0.03-0.9-0.1-1.07c-0.05-0.13-0.16-0.24-0.32-0.34c-0.23-0.13-0.47-0.19-0.72-0.19
		h-0.38v-0.29h4.54v0.29h-0.38c-0.25,0-0.49,0.06-0.71,0.18c-0.16,0.08-0.27,0.21-0.34,0.38c-0.06,0.17-0.09,0.51-0.09,1.04V41.77z"
		/>
	<linearGradient id="SVGID_13_" gradientUnits="userSpaceOnUse" x1="109.7925" y1="42.1514" x2="120.1675" y2="42.1514">
		<stop  offset="6.325391e-08" style="stop-color:#510023"/>
		<stop  offset="1" style="stop-color:#722D49"/>
	</linearGradient>
	<path class="st12" d="M115.08,36.61c1.38,0,2.57,0.52,3.57,1.57c1.01,1.04,1.51,2.35,1.51,3.91c0,1.61-0.51,2.95-1.52,4.01
		s-2.25,1.59-3.69,1.59c-1.46,0-2.68-0.52-3.68-1.55c-0.99-1.04-1.49-2.38-1.49-4.02c0-1.68,0.57-3.05,1.72-4.12
		C112.51,37.07,113.7,36.61,115.08,36.61z M114.93,37.18c-0.95,0-1.71,0.35-2.28,1.05c-0.71,0.88-1.07,2.16-1.07,3.84
		c0,1.73,0.37,3.06,1.11,3.99c0.57,0.71,1.32,1.06,2.25,1.06c0.99,0,1.82-0.39,2.46-1.16c0.65-0.78,0.97-2,0.97-3.67
		c0-1.81-0.36-3.16-1.07-4.05C116.73,37.54,115.94,37.18,114.93,37.18z"/>
	<linearGradient id="SVGID_14_" gradientUnits="userSpaceOnUse" x1="120.8706" y1="42.2764" x2="132.167" y2="42.2764">
		<stop  offset="6.325391e-08" style="stop-color:#510023"/>
		<stop  offset="1" style="stop-color:#722D49"/>
	</linearGradient>
	<path class="st13" d="M128.42,37.14v-0.29h3.75v0.29h-0.4c-0.42,0-0.74,0.17-0.96,0.52c-0.11,0.16-0.16,0.54-0.16,1.13v4.3
		c0,1.06-0.11,1.89-0.32,2.47s-0.63,1.09-1.24,1.51s-1.46,0.63-2.52,0.63c-1.16,0-2.03-0.2-2.63-0.6s-1.02-0.94-1.27-1.62
		c-0.17-0.46-0.25-1.33-0.25-2.61v-4.14c0-0.65-0.09-1.08-0.27-1.28s-0.47-0.3-0.87-0.3h-0.4v-0.29h4.58v0.29h-0.41
		c-0.44,0-0.75,0.14-0.94,0.41c-0.13,0.19-0.2,0.58-0.2,1.17v4.62c0,0.41,0.04,0.88,0.11,1.41s0.21,0.95,0.41,1.24
		s0.48,0.54,0.86,0.73c0.37,0.19,0.83,0.29,1.37,0.29c0.69,0,1.31-0.15,1.86-0.45c0.55-0.3,0.92-0.69,1.12-1.16
		c0.2-0.47,0.3-1.27,0.3-2.39v-4.29c0-0.66-0.07-1.08-0.22-1.24c-0.2-0.23-0.5-0.34-0.91-0.34H128.42z"/>
	<linearGradient id="SVGID_15_" gradientUnits="userSpaceOnUse" x1="133.3389" y1="42.1514" x2="140.3779" y2="42.1514">
		<stop  offset="6.325391e-08" style="stop-color:#510023"/>
		<stop  offset="1" style="stop-color:#722D49"/>
	</linearGradient>
	<path class="st14" d="M139.67,36.61v3.66h-0.29c-0.09-0.7-0.26-1.26-0.5-1.68c-0.24-0.42-0.59-0.75-1.04-0.99
		c-0.45-0.24-0.91-0.37-1.39-0.37c-0.54,0-0.99,0.17-1.34,0.5c-0.35,0.33-0.53,0.71-0.53,1.13c0,0.32,0.11,0.62,0.34,0.88
		c0.32,0.39,1.09,0.91,2.3,1.56c0.99,0.53,1.67,0.94,2.03,1.22c0.36,0.28,0.64,0.62,0.84,1c0.2,0.39,0.29,0.79,0.29,1.21
		c0,0.8-0.31,1.49-0.93,2.07c-0.62,0.58-1.42,0.87-2.4,0.87c-0.31,0-0.6-0.02-0.87-0.07c-0.16-0.03-0.5-0.12-1-0.29
		s-0.83-0.25-0.96-0.25c-0.13,0-0.23,0.04-0.31,0.12s-0.13,0.24-0.17,0.48h-0.29v-3.63h0.29c0.14,0.76,0.32,1.33,0.55,1.71
		c0.23,0.38,0.58,0.69,1.05,0.94s0.99,0.38,1.55,0.38c0.65,0,1.17-0.17,1.54-0.52s0.57-0.75,0.57-1.22c0-0.26-0.07-0.52-0.21-0.79
		s-0.37-0.51-0.67-0.74c-0.2-0.16-0.76-0.49-1.66-1s-1.55-0.91-1.93-1.21c-0.38-0.3-0.67-0.64-0.87-1c-0.2-0.36-0.3-0.77-0.3-1.2
		c0-0.76,0.29-1.42,0.88-1.96c0.58-0.55,1.33-0.82,2.23-0.82c0.56,0,1.16,0.14,1.79,0.41c0.29,0.13,0.5,0.2,0.62,0.2
		c0.14,0,0.25-0.04,0.33-0.12c0.09-0.08,0.16-0.24,0.21-0.49H139.67z"/>
	<linearGradient id="SVGID_16_" gradientUnits="userSpaceOnUse" x1="142.2373" y1="42.1514" x2="149.2764" y2="42.1514">
		<stop  offset="6.325391e-08" style="stop-color:#510023"/>
		<stop  offset="1" style="stop-color:#722D49"/>
	</linearGradient>
	<path class="st15" d="M148.57,36.61v3.66h-0.29c-0.09-0.7-0.26-1.26-0.5-1.68c-0.24-0.42-0.59-0.75-1.04-0.99
		c-0.45-0.24-0.91-0.37-1.39-0.37c-0.54,0-0.99,0.17-1.34,0.5c-0.35,0.33-0.53,0.71-0.53,1.13c0,0.32,0.11,0.62,0.34,0.88
		c0.32,0.39,1.09,0.91,2.3,1.56c0.99,0.53,1.67,0.94,2.03,1.22c0.36,0.28,0.64,0.62,0.84,1c0.2,0.39,0.29,0.79,0.29,1.21
		c0,0.8-0.31,1.49-0.93,2.07c-0.62,0.58-1.42,0.87-2.4,0.87c-0.31,0-0.6-0.02-0.87-0.07c-0.16-0.03-0.5-0.12-1-0.29
		s-0.83-0.25-0.96-0.25c-0.13,0-0.23,0.04-0.31,0.12s-0.13,0.24-0.17,0.48h-0.29v-3.63h0.29c0.14,0.76,0.32,1.33,0.55,1.71
		c0.23,0.38,0.58,0.69,1.05,0.94s0.99,0.38,1.55,0.38c0.65,0,1.17-0.17,1.54-0.52s0.57-0.75,0.57-1.22c0-0.26-0.07-0.52-0.21-0.79
		s-0.37-0.51-0.67-0.74c-0.2-0.16-0.76-0.49-1.66-1s-1.55-0.91-1.93-1.21c-0.38-0.3-0.67-0.64-0.87-1c-0.2-0.36-0.3-0.77-0.3-1.2
		c0-0.76,0.29-1.42,0.88-1.96c0.58-0.55,1.33-0.82,2.23-0.82c0.56,0,1.16,0.14,1.79,0.41c0.29,0.13,0.5,0.2,0.62,0.2
		c0.14,0,0.25-0.04,0.33-0.12c0.09-0.08,0.16-0.24,0.21-0.49H148.57z"/>
	<linearGradient id="SVGID_17_" gradientUnits="userSpaceOnUse" x1="150.5342" y1="42.1514" x2="155.0732" y2="42.1514">
		<stop  offset="6.325391e-08" style="stop-color:#510023"/>
		<stop  offset="1" style="stop-color:#722D49"/>
	</linearGradient>
	<path class="st16" d="M155.07,47.16v0.29h-4.54v-0.29h0.38c0.44,0,0.75-0.13,0.95-0.38c0.13-0.17,0.19-0.57,0.19-1.2v-6.84
		c0-0.54-0.03-0.89-0.1-1.06c-0.05-0.13-0.16-0.24-0.32-0.34c-0.23-0.13-0.47-0.19-0.72-0.19h-0.38v-0.29h4.54v0.29h-0.38
		c-0.43,0-0.75,0.13-0.95,0.38c-0.13,0.17-0.2,0.57-0.2,1.2v6.84c0,0.54,0.03,0.89,0.1,1.06c0.05,0.13,0.16,0.24,0.33,0.34
		c0.22,0.13,0.46,0.19,0.71,0.19H155.07z"/>
	<linearGradient id="SVGID_18_" gradientUnits="userSpaceOnUse" x1="158.7061" y1="42.0303" x2="169.9561" y2="42.0303">
		<stop  offset="6.325391e-08" style="stop-color:#510023"/>
		<stop  offset="1" style="stop-color:#722D49"/>
	</linearGradient>
	<path class="st17" d="M165.9,43.9h-4.1l-0.72,1.67c-0.18,0.41-0.27,0.72-0.27,0.92c0,0.16,0.08,0.3,0.23,0.43
		c0.15,0.12,0.49,0.2,1,0.24v0.29h-3.34v-0.29c0.44-0.08,0.73-0.18,0.86-0.3c0.27-0.25,0.56-0.76,0.88-1.52l3.73-8.72h0.27
		l3.69,8.81c0.3,0.71,0.57,1.17,0.81,1.38s0.58,0.33,1.01,0.36v0.29h-4.18v-0.29c0.42-0.02,0.71-0.09,0.86-0.21
		c0.15-0.12,0.22-0.27,0.22-0.44c0-0.23-0.1-0.59-0.31-1.09L165.9,43.9z M165.68,43.32l-1.8-4.28l-1.84,4.28H165.68z"/>
	<linearGradient id="SVGID_19_" gradientUnits="userSpaceOnUse" x1="170.4014" y1="42.1514" x2="184.0264" y2="42.1514">
		<stop  offset="6.325391e-08" style="stop-color:#510023"/>
		<stop  offset="1" style="stop-color:#722D49"/>
	</linearGradient>
	<path class="st18" d="M176.68,47.45l-4.09-8.91v7.08c0,0.65,0.07,1.06,0.21,1.22c0.19,0.22,0.5,0.33,0.91,0.33h0.38v0.29h-3.69
		v-0.29h0.38c0.45,0,0.77-0.14,0.95-0.41c0.11-0.17,0.17-0.55,0.17-1.14v-6.92c0-0.47-0.05-0.81-0.16-1.02
		c-0.07-0.15-0.21-0.28-0.4-0.38s-0.51-0.15-0.94-0.15v-0.29h3l3.84,8.29l3.78-8.29h3v0.29h-0.37c-0.45,0-0.77,0.14-0.96,0.41
		c-0.11,0.17-0.17,0.55-0.17,1.14v6.92c0,0.65,0.07,1.06,0.22,1.22c0.19,0.22,0.5,0.33,0.91,0.33h0.37v0.29h-4.5v-0.29h0.38
		c0.45,0,0.77-0.14,0.95-0.41c0.11-0.17,0.17-0.55,0.17-1.14v-7.08l-4.09,8.91H176.68z"/>
	<linearGradient id="SVGID_20_" gradientUnits="userSpaceOnUse" x1="184.9248" y1="42.1514" x2="195.2998" y2="42.1514">
		<stop  offset="6.325391e-08" style="stop-color:#510023"/>
		<stop  offset="1" style="stop-color:#722D49"/>
	</linearGradient>
	<path class="st19" d="M190.21,36.61c1.38,0,2.57,0.52,3.57,1.57c1.01,1.04,1.51,2.35,1.51,3.91c0,1.61-0.51,2.95-1.52,4.01
		s-2.25,1.59-3.69,1.59c-1.46,0-2.68-0.52-3.68-1.55c-0.99-1.04-1.49-2.38-1.49-4.02c0-1.68,0.57-3.05,1.72-4.12
		C187.64,37.07,188.83,36.61,190.21,36.61z M190.07,37.18c-0.95,0-1.71,0.35-2.28,1.05c-0.71,0.88-1.07,2.16-1.07,3.84
		c0,1.73,0.37,3.06,1.11,3.99c0.57,0.71,1.32,1.06,2.25,1.06c1,0,1.82-0.39,2.46-1.16c0.65-0.78,0.97-2,0.97-3.67
		c0-1.81-0.36-3.16-1.07-4.05C191.87,37.54,191.08,37.18,190.07,37.18z"/>
	<linearGradient id="SVGID_21_" gradientUnits="userSpaceOnUse" x1="196.0029" y1="42.2764" x2="207.2998" y2="42.2764">
		<stop  offset="6.325391e-08" style="stop-color:#510023"/>
		<stop  offset="1" style="stop-color:#722D49"/>
	</linearGradient>
	<path class="st20" d="M203.55,37.14v-0.29h3.75v0.29h-0.4c-0.42,0-0.74,0.17-0.96,0.52c-0.11,0.16-0.16,0.54-0.16,1.13v4.3
		c0,1.06-0.11,1.89-0.32,2.47s-0.63,1.09-1.24,1.51s-1.46,0.63-2.52,0.63c-1.16,0-2.03-0.2-2.63-0.6s-1.02-0.94-1.27-1.62
		c-0.17-0.46-0.25-1.33-0.25-2.61v-4.14c0-0.65-0.09-1.08-0.27-1.28s-0.47-0.3-0.87-0.3H196v-0.29h4.58v0.29h-0.41
		c-0.44,0-0.75,0.14-0.94,0.41c-0.13,0.19-0.2,0.58-0.2,1.17v4.62c0,0.41,0.04,0.88,0.11,1.41s0.21,0.95,0.41,1.24
		s0.48,0.54,0.86,0.73c0.37,0.19,0.83,0.29,1.37,0.29c0.69,0,1.31-0.15,1.86-0.45c0.55-0.3,0.92-0.69,1.12-1.16
		c0.2-0.47,0.3-1.27,0.3-2.39v-4.29c0-0.66-0.07-1.08-0.22-1.24c-0.2-0.23-0.5-0.34-0.91-0.34H203.55z"/>
	<linearGradient id="SVGID_22_" gradientUnits="userSpaceOnUse" x1="208.4717" y1="42.1514" x2="215.5107" y2="42.1514">
		<stop  offset="6.325391e-08" style="stop-color:#510023"/>
		<stop  offset="1" style="stop-color:#722D49"/>
	</linearGradient>
	<path class="st21" d="M214.81,36.61v3.66h-0.29c-0.09-0.7-0.26-1.26-0.5-1.68c-0.24-0.42-0.59-0.75-1.04-0.99
		c-0.45-0.24-0.91-0.37-1.39-0.37c-0.54,0-0.99,0.17-1.34,0.5c-0.35,0.33-0.53,0.71-0.53,1.13c0,0.32,0.11,0.62,0.34,0.88
		c0.32,0.39,1.09,0.91,2.3,1.56c0.99,0.53,1.67,0.94,2.03,1.22c0.36,0.28,0.64,0.62,0.84,1c0.2,0.39,0.29,0.79,0.29,1.21
		c0,0.8-0.31,1.49-0.93,2.07c-0.62,0.58-1.42,0.87-2.4,0.87c-0.31,0-0.6-0.02-0.87-0.07c-0.16-0.03-0.5-0.12-1-0.29
		s-0.83-0.25-0.96-0.25c-0.13,0-0.23,0.04-0.31,0.12s-0.13,0.24-0.17,0.48h-0.29v-3.63h0.29c0.14,0.76,0.32,1.33,0.55,1.71
		c0.23,0.38,0.58,0.69,1.05,0.94s0.99,0.38,1.55,0.38c0.65,0,1.17-0.17,1.54-0.52s0.57-0.75,0.57-1.22c0-0.26-0.07-0.52-0.21-0.79
		s-0.37-0.51-0.67-0.74c-0.2-0.16-0.76-0.49-1.66-1s-1.55-0.91-1.93-1.21c-0.38-0.3-0.67-0.64-0.87-1c-0.2-0.36-0.3-0.77-0.3-1.2
		c0-0.76,0.29-1.42,0.88-1.96c0.58-0.55,1.33-0.82,2.23-0.82c0.56,0,1.16,0.14,1.79,0.41c0.29,0.13,0.5,0.2,0.62,0.2
		c0.14,0,0.25-0.04,0.33-0.12c0.09-0.08,0.16-0.24,0.21-0.49H214.81z"/>
	<linearGradient id="SVGID_23_" gradientUnits="userSpaceOnUse" x1="217.3701" y1="42.1514" x2="224.4092" y2="42.1514">
		<stop  offset="6.325391e-08" style="stop-color:#510023"/>
		<stop  offset="1" style="stop-color:#722D49"/>
	</linearGradient>
	<path class="st22" d="M223.71,36.61v3.66h-0.29c-0.09-0.7-0.26-1.26-0.5-1.68c-0.24-0.42-0.59-0.75-1.04-0.99
		c-0.45-0.24-0.91-0.37-1.39-0.37c-0.54,0-0.99,0.17-1.34,0.5c-0.35,0.33-0.53,0.71-0.53,1.13c0,0.32,0.11,0.62,0.34,0.88
		c0.32,0.39,1.09,0.91,2.3,1.56c0.99,0.53,1.67,0.94,2.03,1.22c0.36,0.28,0.64,0.62,0.84,1c0.2,0.39,0.29,0.79,0.29,1.21
		c0,0.8-0.31,1.49-0.93,2.07c-0.62,0.58-1.42,0.87-2.4,0.87c-0.31,0-0.6-0.02-0.87-0.07c-0.16-0.03-0.5-0.12-1-0.29
		s-0.83-0.25-0.96-0.25c-0.13,0-0.23,0.04-0.31,0.12s-0.13,0.24-0.17,0.48h-0.29v-3.63h0.29c0.14,0.76,0.32,1.33,0.55,1.71
		c0.23,0.38,0.58,0.69,1.05,0.94s0.99,0.38,1.55,0.38c0.65,0,1.17-0.17,1.54-0.52s0.57-0.75,0.57-1.22c0-0.26-0.07-0.52-0.21-0.79
		s-0.37-0.51-0.67-0.74c-0.2-0.16-0.76-0.49-1.66-1s-1.55-0.91-1.93-1.21c-0.38-0.3-0.67-0.64-0.87-1c-0.2-0.36-0.3-0.77-0.3-1.2
		c0-0.76,0.29-1.42,0.88-1.96c0.58-0.55,1.33-0.82,2.23-0.82c0.56,0,1.16,0.14,1.79,0.41c0.29,0.13,0.5,0.2,0.62,0.2
		c0.14,0,0.25-0.04,0.33-0.12c0.09-0.08,0.16-0.24,0.21-0.49H223.71z"/>
	<linearGradient id="SVGID_24_" gradientUnits="userSpaceOnUse" x1="225.8311" y1="42.1514" x2="236.2061" y2="42.1514">
		<stop  offset="6.325391e-08" style="stop-color:#510023"/>
		<stop  offset="1" style="stop-color:#722D49"/>
	</linearGradient>
	<path class="st23" d="M231.12,36.61c1.38,0,2.57,0.52,3.57,1.57c1.01,1.04,1.51,2.35,1.51,3.91c0,1.61-0.51,2.95-1.52,4.01
		s-2.25,1.59-3.69,1.59c-1.46,0-2.68-0.52-3.68-1.55c-0.99-1.04-1.49-2.38-1.49-4.02c0-1.68,0.57-3.05,1.72-4.12
		C228.54,37.07,229.73,36.61,231.12,36.61z M230.97,37.18c-0.95,0-1.71,0.35-2.28,1.05c-0.71,0.88-1.07,2.16-1.07,3.84
		c0,1.73,0.37,3.06,1.11,3.99c0.57,0.71,1.32,1.06,2.25,1.06c1,0,1.82-0.39,2.46-1.16c0.65-0.78,0.97-2,0.97-3.67
		c0-1.81-0.36-3.16-1.07-4.05C232.77,37.54,231.98,37.18,230.97,37.18z"/>
	<linearGradient id="SVGID_25_" gradientUnits="userSpaceOnUse" x1="236.9092" y1="42.2764" x2="248.2061" y2="42.2764">
		<stop  offset="6.325391e-08" style="stop-color:#510023"/>
		<stop  offset="1" style="stop-color:#722D49"/>
	</linearGradient>
	<path class="st24" d="M244.46,37.14v-0.29h3.75v0.29h-0.4c-0.42,0-0.74,0.17-0.96,0.52c-0.11,0.16-0.16,0.54-0.16,1.13v4.3
		c0,1.06-0.11,1.89-0.32,2.47s-0.63,1.09-1.24,1.51s-1.46,0.63-2.52,0.63c-1.16,0-2.03-0.2-2.63-0.6s-1.02-0.94-1.27-1.62
		c-0.17-0.46-0.25-1.33-0.25-2.61v-4.14c0-0.65-0.09-1.08-0.27-1.28s-0.47-0.3-0.87-0.3h-0.4v-0.29h4.58v0.29h-0.41
		c-0.44,0-0.75,0.14-0.94,0.41c-0.13,0.19-0.2,0.58-0.2,1.17v4.62c0,0.41,0.04,0.88,0.11,1.41s0.21,0.95,0.41,1.24
		s0.48,0.54,0.86,0.73c0.37,0.19,0.83,0.29,1.37,0.29c0.69,0,1.31-0.15,1.86-0.45c0.55-0.3,0.92-0.69,1.12-1.16
		c0.2-0.47,0.3-1.27,0.3-2.39v-4.29c0-0.66-0.07-1.08-0.22-1.24c-0.2-0.23-0.5-0.34-0.91-0.34H244.46z"/>
</g>
</svg>
